<?xml version="1.0" encoding="UTF-8" standalone="no"?>
<svg
   xmlns:dc="http://purl.org/dc/elements/1.1/"
   xmlns:cc="http://creativecommons.org/ns#"
   xmlns:rdf="http://www.w3.org/1999/02/22-rdf-syntax-ns#"
   xmlns:svg="http://www.w3.org/2000/svg"
   xmlns="http://www.w3.org/2000/svg"
   xmlns:sodipodi="http://sodipodi.sourceforge.net/DTD/sodipodi-0.dtd"
   xmlns:inkscape="http://www.inkscape.org/namespaces/inkscape"
   width="210mm"
   height="297mm"
   viewBox="0 0 210 297"
   version="1.1"
   id="svg31"
   inkscape:version="1.0.2-2 (e86c870879, 2021-01-15)"
   sodipodi:docname="AppleSVG.svg">
  <defs
     id="defs25" />
  <sodipodi:namedview
     id="base"
     pagecolor="#ffffff"
     bordercolor="#666666"
     borderopacity="1.0"
     inkscape:pageopacity="0.0"
     inkscape:pageshadow="2"
     inkscape:zoom="0.7"
     inkscape:cx="331.74126"
     inkscape:cy="551.84068"
     inkscape:document-units="mm"
     inkscape:current-layer="layer1"
     inkscape:document-rotation="0"
     showgrid="false"
     inkscape:window-width="1620"
     inkscape:window-height="1018"
     inkscape:window-x="-6"
     inkscape:window-y="-6"
     inkscape:window-maximized="1" />
  <metadata
     id="metadata28">
    <rdf:RDF>
      <cc:Work
         rdf:about="">
        <dc:format>image/svg+xml</dc:format>
        <dc:type
           rdf:resource="http://purl.org/dc/dcmitype/StillImage" />
        <dc:title></dc:title>
      </cc:Work>
    </rdf:RDF>
  </metadata>
  <g
     inkscape:label="Layer 1"
     inkscape:groupmode="layer"
     id="layer1">
    <path
       style="fill:none;stroke:#000000;stroke-width:0.264583px;stroke-linecap:butt;stroke-linejoin:miter;stroke-opacity:1"
       d="m 97.895832,131.91369 c -3.86276,-1.93138 0.496308,0.4963 -5.669642,-5.66964 -3.873334,-3.87334 -9.536996,-7.31727 -15.119048,-7.9375 -12.624337,-1.40271 -15.095951,8.46981 -20.788691,17.00892 -0.296508,0.44477 -0.880504,0.66329 -1.133928,1.13393 -1.963935,3.64731 -3.848888,8.73024 -4.535714,12.85119 -1.502061,9.01237 0.0024,18.53038 2.267857,27.21429 0.717513,2.75046 1.087821,5.58847 1.889882,8.31548 1.060413,3.6054 0.806302,2.17327 2.267857,4.91369 0.832922,1.56173 2.426748,6.19447 3.401785,7.55952 2.836529,3.97114 6.401263,7.91803 10.205357,10.96131 3.867611,3.09409 3.370951,2.26505 7.559525,2.64583 2.588294,0.2353 4.573333,0.32603 7.181545,0 0.884045,-0.1105 2.172552,0.25538 3.023809,0 0.919062,-0.27572 1.726774,-0.85821 2.645834,-1.13393 1.41624,-0.42487 2.644325,-0.21426 3.779763,-1.5119 1.34847,-1.54111 2.138931,-2.38798 3.023809,-4.15774 0.178181,-0.35636 0.156972,-0.80242 0.377976,-1.13393 0.503968,-0.75595 2.154342,-1.62542 1.511906,-2.26786 -0.461727,-0.46172 -0.377976,3.23876 -0.377976,3.77977 0,3.60349 0.930092,6.89617 3.023812,9.82738 1.67171,2.3404 2.95445,2.89065 5.66964,4.15774 0.73527,0.34312 3.20062,1.69845 4.15774,1.88988 9.66351,1.9327 18.6466,-1.19249 25.3244,-8.31548 1.32514,-1.41348 3.25563,-5.008 4.15774,-6.42559 4.55687,-7.1608 9.1523,-14.9925 10.96131,-23.43453 0.10559,-0.49278 -0.0901,-1.01606 0,-1.5119 0.16408,-0.90244 0.64218,-1.73568 0.75595,-2.64584 0.44464,-3.5571 -0.0852,-7.44815 -0.37797,-10.96131 -0.2285,-2.74189 0.0707,-5.62897 -0.75596,-8.31547 -0.17494,-0.56857 -1.23026,-3.63894 -2.26785,-4.15774 -0.11269,-0.0563 -0.28889,0.0891 -0.37798,0 -0.39842,-0.39842 -0.56026,-0.98353 -0.75595,-1.5119 -1.1627,-3.1393 -2.36901,-6.26501 -3.40179,-9.44941 -4.32884,-13.34727 -2.43395,-24.81992 -18.14286,-29.10417 -1.49765,-0.40845 -4.11132,-0.76755 -5.66964,-0.37797 -2.13505,0.53376 -8.04256,3.36334 -9.4494,4.53571 -0.82129,0.68441 -1.37833,1.67484 -2.26786,2.26786 -1.51385,1.00923 -2.97762,1.54866 -4.15774,3.02381 -1.54651,1.93314 0.0401,0.31781 -1.5119,2.64583 -0.79796,1.19694 -4.961796,5.94225 -6.425598,5.29167 -1.87529,-0.83346 -0.954548,-2.96617 -0.755952,-4.15774 0.313444,-1.88066 0.293532,-3.81996 0.755952,-5.66964 0.261083,-1.04434 0.85656,-1.98368 1.133928,-3.02381 0.651467,-2.443 0.404815,-5.12915 1.13393,-7.55953 0.28186,-0.93952 0.89993,-1.70983 1.13393,-2.64583 0.4555,-1.822 -0.282,-3.68971 0.37797,-5.66964 0.164,-0.492 -0.13354,-7.18155 0,-7.18155 0.17818,0 0.1998,0.377976 0.37798,0.377976 0.45427,0 0.71639,-0.577006 1.13393,-0.755951 1.24726,-0.534538 2.50184,-1.055505 3.77976,-1.511904 4.38028,-1.564388 8.95372,-2.54159 13.60714,-2.267857 3.57238,0.21014 8.33264,1.151091 10.96131,3.779761 0.68874,0.688736 1.62692,1.248941 2.26786,1.889881 0.28173,0.281726 -0.0205,1.133928 0.37798,1.133928 0.12599,0 0.0891,-0.288886 0,-0.377976 -0.3732,-0.3732 -1.95861,2.090322 -3.02381,2.267862 -3.71809,0.61968 -10.00568,0.98221 -13.60715,0 -1.9674,-0.53657 -4.16668,-1.262906 -6.04762,-1.889886 -0.44773,-0.149244 -0.7089,-0.921417 -1.13392,-1.133928 -0.22539,-0.112691 -0.53057,0.112692 -0.75596,0 -0.59839,-0.299198 -0.95272,-1.139118 -1.5119,-1.511906 -0.58187,-0.38791 -2.7112,-1.511903 -3.02381,-1.511903"
       id="path32" />
  </g>
</svg>
