<?xml version="1.0" encoding="UTF-8" standalone="no"?>
<svg
   xmlns:dc="http://purl.org/dc/elements/1.1/"
   xmlns:cc="http://creativecommons.org/ns#"
   xmlns:rdf="http://www.w3.org/1999/02/22-rdf-syntax-ns#"
   xmlns:svg="http://www.w3.org/2000/svg"
   xmlns="http://www.w3.org/2000/svg"
   xmlns:sodipodi="http://sodipodi.sourceforge.net/DTD/sodipodi-0.dtd"
   xmlns:inkscape="http://www.inkscape.org/namespaces/inkscape"
   width="210mm"
   height="297mm"
   viewBox="0 0 210 297"
   version="1.1"
   id="svg31"
   inkscape:version="1.0.2-2 (e86c870879, 2021-01-15)"
   sodipodi:docname="EyeballSVG.svg">
  <defs
     id="defs25" />
  <sodipodi:namedview
     id="base"
     pagecolor="#ffffff"
     bordercolor="#666666"
     borderopacity="1.0"
     inkscape:pageopacity="0.0"
     inkscape:pageshadow="2"
     inkscape:zoom="0.7"
     inkscape:cx="331.74126"
     inkscape:cy="551.84068"
     inkscape:document-units="mm"
     inkscape:current-layer="layer1"
     inkscape:document-rotation="0"
     showgrid="false"
     inkscape:window-width="1620"
     inkscape:window-height="1018"
     inkscape:window-x="-6"
     inkscape:window-y="-6"
     inkscape:window-maximized="1" />
  <metadata
     id="metadata28">
    <rdf:RDF>
      <cc:Work
         rdf:about="">
        <dc:format>image/svg+xml</dc:format>
        <dc:type
           rdf:resource="http://purl.org/dc/dcmitype/StillImage" />
        <dc:title></dc:title>
      </cc:Work>
    </rdf:RDF>
  </metadata>
  <g
     inkscape:label="Layer 1"
     inkscape:groupmode="layer"
     id="layer1">
    <path
       style="fill:none;stroke:#000000;stroke-width:0.264583px;stroke-linecap:butt;stroke-linejoin:miter;stroke-opacity:1"
       d="m 33.639881,140.60714 c 9.577758,-7.88756 5.002948,-4.84132 19.276785,-12.09524 3.365854,-1.71051 6.67816,-3.56694 10.205357,-4.91369 15.626829,-5.9666 34.339723,-7.02603 50.648807,-3.40178 6.01335,1.3363 9.14276,2.76835 15.11905,4.91369 5.44677,1.95525 10.34249,4.2263 15.49702,6.80357 0.91829,0.45914 5.0673,1.81911 5.66965,3.02381 0.86642,1.73286 -1.69428,3.67931 -2.64584,4.53571 -4.99335,4.49402 -12.19781,6.5712 -18.52083,8.31548 -5.82135,1.60589 -5.70089,1.18516 -12.85119,3.02381 -7.97132,2.04977 -2.33127,1.50252 -12.47322,3.02381 -17.348373,2.60225 -36.176027,2.32269 -52.16071,-5.66965 -0.968833,-0.48441 -2.309762,-1.52587 -3.401785,-1.88988 -0.609467,-0.20315 -1.288349,-0.1524 -1.889881,-0.37797 -2.296864,-0.86133 -4.059921,-3.21058 -6.047619,-4.53572 -0.209663,-0.13977 -0.530571,0.11269 -0.755951,0 -0.69586,-0.34793 -0.06009,-0.786 -0.755952,-1.13393 -0.251986,-0.12599 -0.50397,-0.25198 -0.755954,-0.37797 -0.112689,-0.0564 -0.377976,0.12599 -0.377976,0 0,-0.60543 1.552112,-0.37798 1.889882,-0.37798 1.050308,0 2.779879,-2.14589 3.77976,-2.64583 0.501029,-0.25052 2.228377,-0.49081 3.02381,-0.75595 0.478107,-0.15937 1.033798,0.15936 1.511905,0 0.458865,-0.15296 1.426742,-0.5707 1.889882,-0.75596 2.057083,-0.82283 3.288649,-2.51155 5.291667,-3.40178 1.4249,-0.63329 7.717491,-2.79815 9.071427,-3.02381 1.538409,-0.2564 4.727877,0.0619 6.047618,-0.37798 1.511906,-0.50397 -0.07643,-0.36269 1.889882,-0.75595 0.45308,-0.0906 1.458023,0.21593 1.889882,0 5.689504,-2.84475 11.761946,-4.45937 18.142857,-5.29167 4.660185,-0.60785 14.462966,0.21112 18.520836,2.64584 0.61115,0.36669 0.97553,1.04257 1.5119,1.5119 0.47409,0.41483 1.09707,0.65984 1.51191,1.13393 3.95215,4.51675 4.75866,14.47353 0.75595,19.27679 -0.87017,1.0442 -4.18359,3.53208 -5.66964,3.77976 -1.3498,0.22497 -2.818,0.11003 -4.15774,0.37797 -6.123028,1.22461 -12.527194,3.70777 -18.898813,2.64584 -0.669255,-0.11155 -1.231651,-0.5914 -1.889879,-0.75595 -0.864298,-0.21608 -1.786329,-0.14357 -2.645833,-0.37798 -3.348593,-0.91325 -8.23332,-5.71899 -9.07143,-9.07143 -0.352589,-1.41035 0,-3.48774 0,-4.91369 0,-1.12649 -0.274476,-2.68186 0,-3.77976 0.441963,-1.76785 1.537118,-5.11529 3.401785,-6.04762 2.212398,-1.1062 0.815602,0.21222 2.267857,-0.75595 0.4816,-0.32107 1.254654,-1.13393 1.889882,-1.13393 0.125992,0 -0.05635,0.26528 0,0.37797 0.430392,0.86079 0.254654,1.09817 0.755952,2.26786 0.683672,1.59524 2.190406,2.94636 3.401787,4.15774 0.300363,0.30036 1.346811,0.33018 1.133928,0.75595 -0.536448,1.0729 -2.297899,1.98001 -2.645834,3.02381 -0.129929,0.38979 -0.870863,2.9089 -0.377976,3.40179 0.08909,0.0891 0.265285,-0.0564 0.377976,0 1.335707,0.66785 3.226763,3.22056 4.913691,4.15774 0.593106,0.3295 1.300787,0.41932 1.889882,0.75595 2.421787,1.38388 -1.566744,0.2337 2.267855,1.5119 2.485805,0.8286 5.830437,0.62126 8.315478,0 0.975722,-0.24393 1.933942,-0.30339 2.645832,-1.13393 0.47811,-0.55779 0.65016,-1.33699 1.13393,-1.88988 1.61757,-1.84865 2.56385,-1.74258 3.40178,-4.53571 0.17391,-0.57967 -0.23624,-4.72471 -0.37797,-4.91369 -0.27257,-0.36342 -0.85015,-0.40123 -1.13393,-0.75595 -0.24889,-0.31112 -0.13892,-0.8152 -0.37798,-1.13393 -1.52962,-2.0395 -8.422135,-3.49223 -10.961307,-2.64584 -1.588466,0.52949 -3.031921,1.13799 -4.535712,1.88988 -0.302382,0.1512 -0.831549,-0.15119 -1.13393,0 -0.318736,0.15937 -0.437214,0.59659 -0.755952,0.75596 -0.225383,0.11269 -0.530572,-0.11269 -0.755952,0 -1.148873,0.57443 -2.108377,3.77976 -2.645833,3.77976"
       id="path30" />
  </g>
</svg>
