<svg version="1.1" xmlns="http://www.w3.org/2000/svg" xmlns:xlink= "http://www.w3.org/1999/xlink"><polyline fill="none" stroke="#66cc99" stroke-width="2.0" points="73.746744,64.644016 74.36660000000006,65.93908800000011 73.27463400000006,70.25702200000009 70.80290600000005,79.00002800000009 68.09820800000004,90.36428700000009 66.89965046875004,100.5903940546876 66.06301843750006,118.67637901562507 66.37774344531256,144.4280642578126 67.65937262500006,168.38463168750008 68.64201793750006,183.86502187500008 69.25647412500007,203.0198107500001 69.46788353125007,214.84448700000007 69.65224800000006,227.2734080000001 70.02689843750005,236.98683140625008 71.09844937500006,244.4482638125001 72.50580440625006,247.6247990937501 74.29562512500006,249.32141906250013 77.43034912890633,248.82421948828141 80.57507003125006,247.0456939062501 82.70762450000007,244.0877151875001 84.22110721875006,239.6894748750001 87.84702481250005,233.22935846875012 90.89755175000008,227.0726308125001 95.97204131250007,215.60387850000006 103.51781631250007,197.40720943750011 110.53908356250008,182.3004935000001 119.06694581250008,163.5285228750001 128.5307760000001,141.47189900000012 135.93905765625007,125.2566622812501 143.94426400000006,110.01240200000011 151.74976303125007,94.68557640625014 159.88416675000008,82.50848750000011 164.96881956250007,75.01882750000013 168.0134380000001,69.74378600000011 173.0575838750001,65.28991725000012 178.34072565625007,63.33050868750013 180.44239175000007,64.55507075000011 182.73800518750008,67.18150303125012 184.30684499218756,72.14388220703138 186.41139425000006,77.75533068750012 188.1941849375001,90.90633362500013 189.8025546875001,103.55709512500013 190.6088210000001,122.09927400000012 190.9125650000001,140.65304700000013 190.83432200000007,163.07792000000012 190.51485775000006,175.42702575000013 190.4387289375001,187.18598775000012 191.1427475000001,195.23258293750013 191.35546087500006,205.19444675000014 193.1751786875001,212.21823212500013 195.6473843125001,213.42926862500013 199.2107358750001,212.9743213125001 201.44976843750007,211.49669959375015 202.79173487500012,209.9646240000001 203.95922800000008,204.2385800000001 207.40001475000008,196.0236245000001 212.87022393750007,183.95714740625013 217.62032600000006,173.9091860000001 225.1233875000001,157.61609700000008 232.95358500000006,140.20753400000007 241.41424434375003,121.86095368750011 247.3415990000001,110.50342650000009 256.05265382031257,93.4959155937501 265.99304700000005,75.15273600000009 270.50598843750004,66.7326093437501 273.13247250000006,60.960640750000096 276.00441246484377,57.229135886718836 278.31327400000004,55.72698200000009 280.61907143750005,55.2590682500001 284.2004349687501,55.08410188671885 286.4545062812501,58.05362846875009 288.2994231562501,62.69887309375008 291.5851506875,74.38990825000009 293.28845403125007,83.22028312500008 295.6305842500001,97.35739900000007 297.4591621250001,115.32463743750009 298.4610120000001,133.9383620000001 299.16633200000007,157.3618260000001 299.063053,174.2583462500001 299.30792950000006,190.95784662500006 299.6244216562501,197.40961032812507 300.28179250000005,206.34385875000007 301.4299757265626,208.87610214843752 302.94893450000006,209.64931612500004 306.3642071875,208.49388828125 308.8091620937501,206.80317612500002 310.9011256250001,203.75171331250007 311.05061887500005,201.22198125000006 313.59236643750006,194.12761237500007 315.77645250000006,189.24942950000008 319.51718118750006,180.94732793750006 325.1857301875001,169.78843206250008 332.3626065000001,155.13667125000006 344.1951542500001,128.7473632500001 349.9645796875001,116.51090737500007 354.03019765625004,109.40440556250005 363.1537400000001,92.30747400000007 371.7813755000001,76.09316600000005 376.4579083750001,66.88827381250006 377.2286241875001,65.08363818750006 380.259042,62.03217800000006 382.93542300000007,60.967044750000056 388.08161105078136,59.0077913476563 391.7629351093751,59.725363515625055 393.2949285000001,61.26808900000005 395.8092284218751,66.50685582812505 397.3587835000001,70.94776703125007 399.77444,82.65747400000006 402.1514809375001,93.52155371875007 406.62712250000004,115.16318300000005 408.9661475000001,129.29467125000005 410.443195,139.19156025000007 413.8589925000001,160.45996950000003 416.5428800000001,174.60657600000005 418.9347787500001,187.70052418750006 420.14561000000003,195.74082275000006 421.7201975,205.34567075000004 423.00862406738287,211.35154766552742 424.9602734765625,213.4207133554688 428.3538118750001,212.10067400000008 429.16695,211.56702750000005 429.0810675000001,206.3454235 430.68145437500004,198.42603612500002 435.52762,184.68237700000003 439.8434812500001,172.71719362500005 445.02430031250003,158.42640340625002 453.37201999999996,137.26154200000005 463.43352187500005,115.20893925000004 469.40358000000003,102.36612912500007 474.44749000000013,92.44424550000006 483.21215250000006,76.99984275000006 488.75730000000004,67.57374400000006 488.42701,66.19489200000005 489.6376293750001,64.28403650000004 492.7634609375,62.26210781250006 496.05164,61.57896800000005 496.96677515625,62.36094442187505 498.862546875,67.28921675000007 499.81832589843754,71.87044287890629 500.7491403125001,84.24152115625004 501.63513249999994,96.43431600000005 502.45566500000007,107.46531525000005 504.53698,122.49069400000003 506.09659218750005,132.76322140625 507.89897500000006,146.24828675000003 509.4392600000001,161.24685400000004 509.69694,173.57989700000002 509.9780025000001,183.95116800000002 510.2253506250001,188.48165878125002 511.63899437500004,196.0276780625 512.7309415625001,198.54669843750003 516.1483225,198.855321 518.564590625,197.18680850000004 519.85699,194.50428425000004 518.60312,193.67312300000003 520.5922400000001,189.00433200000003 525.4973084375,175.72710509375003 529.2131606250001,165.82149725000005 533.0001103124999,155.80866356250004 538.8901025000001,139.55414046875003 547.5880199999999,118.93923443750005 553.5679400000001,105.14324400000005 559.8538178125,91.81401971875006 567.843535,75.65432596875004 573.3031400000001,64.32695000000005 576.6238000000001,56.88619525000006 577.623241875,53.409679187500046 579.58597,52.221188000000055 583.136855,50.58259575000006 584.37314625,51.31119875000005 586.3055225,54.20275346875005 586.96336625,57.098776500000056 587.1150062500001,68.15959018750004 586.9098600000001,78.29213800000005 586.968145625,85.74983615625004 588.2249,95.21843000000004 590.5500125000001,105.65413231250004 595.73724,122.71495800000005 600.5867168750001,137.92207290625007 607.5203643750001,160.97908581250005 613.8105000000002,179.69117800000004 618.7959400000002,192.74861600000003 620.765120625,196.85302693750003 622.0882075000002,198.52005775000006 623.8870903125,198.49894925000007 623.0391700000001,199.14870800000006 626.4082781250002,196.61673568750007 628.2502618750001,194.02159425000005 631.1339734375001,186.88595681250007 632.2524137500002,181.97341856250006 633.1286100000001,170.19821975000008 633.4734425000003,153.30311100000006 634.8887200000001,137.71536975000004 639.3728925000003,97.76314675000006 641.3942250000002,65.11007825000004 642.2484400000002,41.45283000000005 642.4425250000002,25.37004892500005 641.8271912500002,17.847687037500048 641.4202106250002,15.712784512500047 640.7285600000002,15.976656000000048" opacity="0.8" /><polyline fill="none" stroke="#66cc99" stroke-width="2.0" points="20.7535284,444.53280000000007 25.689622800000052,443.30422000000027 29.113360403125057,443.0372859375003 35.13243347500005,441.8622821875003 41.84299882500006,439.10233562500036 52.19934950000006,434.1232900000003 55.23943393750005,432.2852731250002 61.22740425000006,427.96829750000023 65.32238100000006,422.52970500000026 69.98092368750005,416.36676406250024 80.10912800000007,403.16357600000026 88.87516100000008,391.2234115000003 100.81964200000007,373.35174000000023 109.87501587500007,360.84063906250026 118.53111400000007,348.77453800000023 132.01534600000008,330.96143200000023 137.97206715625006,323.8781501250003 151.29893575000006,309.6428678750002 160.86089068750007,300.18112237500026 170.79896025000008,291.65141575000024 174.94672618750008,288.2883626250003 179.79061675000008,284.5171295625002 182.0259247460938,283.41085697265646 190.49208537500004,278.9365266250003 196.28001412500004,276.3678610000003 205.20032518750003,274.1282376250002 211.4158750156251,272.8313240000002 220.34049643750004,272.6590570937503 226.2690385625001,273.4169281875003 235.03616593750002,275.79961615625024 238.95658678125,277.80002053125025 243.34563996875005,281.5166437500003 245.97847000000007,284.7678975312503 250.07999712500003,293.87687950000026 254.21548800000005,304.8814940000003 257.44227275000003,315.97152950000026 259.64762625000003,326.49678375000025 260.2773122500001,333.42699525000023 260.4537959960938,338.3517384453127 258.77285684375,341.80299406250026 257.2115835000001,342.4392390000002 259.256552,340.53684000000027 257.91539462500003,340.28409900000025 252.42631600000004,339.7069560000003 245.62483550000007,339.2520921250002 238.77724075000006,339.97879212500027 231.2148760937501,341.2453912187502 227.42659768750008,342.7038840625002 223.76232000000005,344.38302800000025 218.32427231250009,347.85961362500024 214.78120200000004,351.20121800000027 209.43767625000004,359.31768525000024 205.82268446875005,365.57106787500027 202.17467193750005,373.2014535312502 200.17982325000003,379.38367375000024 197.48977140625004,391.2572808437502 195.36862665625003,405.93815696875026 194.62796637500006,419.34732550000024 195.16441193750006,430.54483687500016 196.48422831250005,436.86274437500015 198.65970790625005,440.66771656250023 203.31101328125004,444.84318437500025 209.76490118750007,448.11432625000015 217.95286350000006,451.63136750000024 221.42174100000003,453.1211825000002 226.1371574375001,454.7918968750002 230.43695625000004,454.9925750000002 235.99979468750007,454.8131553125002 248.38154700000004,453.14075250000025 255.84248100000008,451.5884200000002 260.2869695937501,449.8919765625002 261.8651984843751,449.0011015625003 265.8711104375001,446.42805937500015 267.0511464453126,445.22926687500023 269.28532890625013,442.55994390625017 274.8290729062501,435.66642843750026 280.6068690000001,428.66297000000014 288.40100818750005,416.2079300000002 298.9629135000001,400.6168602500002 306.2257587500001,389.23786025000015 318.2798817500001,369.02038150000016 326.27814306250013,355.72297137500016 337.60876775000014,337.7719392500002 344.18738762500016,329.58535490625013 356.32542225000014,317.6253877500002 363.41285200000016,311.57877800000017 373.16893875000017,303.31345775000017 377.3659373125002,300.05230400000016 390.8298336875002,291.8737285000002 399.9508560000002,287.9411615000002 407.86100500000015,285.35008750000014 412.49667687500016,284.56121543750015 423.6816543750001,284.35637068750015 430.7006000000001,284.89482600000014 436.68573417968753,285.9829513085939 441.0324649218751,287.4907655546877 448.3970343750001,291.5077211875002 454.0707150000002,295.9303443750001 460.61197500000014,303.35418012500014 465.5024262500001,311.14048018750015 469.54513593750016,318.9088170000001 472.77899187500014,327.27312893750013 475.0598437500001,335.63334712500017 475.6996900000001,340.2848470000002 475.96887500000014,351.1820197500002 475.6609844921876,353.34202712109396 474.05074593750015,354.72297371875015 473.50902000000013,354.6466570000001 473.3731600000001,352.88544075000016 470.9794287500002,351.60942550000016 467.1749275000002,349.82261350000016 464.0932254687501,348.9225523906251 459.27636593750015,348.93495590625014 453.55218000000013,350.41784600000017 452.7232700000001,350.6956100000001 450.0569731250001,352.1651703437501 441.1691850000001,358.7015875000001 435.9700062500002,363.7122805000002 428.8093856250001,372.11912981250015 426.0827818750002,376.2557518750001 418.86604375000013,392.13498287500016 417.18272937500006,397.0689651875001 415.07858187500005,405.7971404375001 414.3151000000001,413.3429500000002 414.1819834375001,421.44486562500003 414.9168812500001,433.74849375000014 416.2767062500001,441.3582265625 418.0068950000001,446.78839125000013 419.7977400000001,450.01056125000014 422.34022406250017,452.3556796875002 428.59319437500005,455.2192675 435.51650000000006,456.99783750000006 444.64213671875007,458.5012375 452.79320562500004,457.9867431250001 460.34777562500005,456.819648125 472.70797375,453.29130093750007 479.6309881250001,450.54255500000016 482.2592737500001,449.27091 486.0419658593752,446.9179455468751 489.5217515625001,444.1749809375 494.68091484375,439.75280921875003 498.5564743750001,435.99885875 506.0935875000001,426.72870656250007 515.1946584375,413.40889531250014 526.1961025,393.0842703750001 536.1144675000002,373.2037797500001 542.862125,358.56535725000003 548.78645125,346.4419311875001 553.88532375,338.45521275000004 561.586390625,328.40916025000007 566.3978695312501,323.7673511562501 572.7744046875001,319.16406268750006 579.28974,315.71902175 587.6640992578125,311.5110579257813 598.5865633593751,307.7593501328126 608.57185015625,304.9901593437501 616.6076866406249,303.9353927109376 625.5336021875,303.28655793750005 631.9154754687501,303.8623855546876 638.8924719140626,305.64681226562504 642.2833325000001,307.18827387500005 647.4679793749999,311.73721481250004 650.2672156250001,314.78606203125 652.08159,317.68809150000004 652.2946048046875,317.9676186718751 653.6251527343751,318.08435589062503 655.9704225000002,317.1350941875001 651.9615200000001,318.57488200000006 650.9027750000001,318.4180725000001 648.9085950000001,318.25338518750016 647.2317906250001,318.38208900000006 642.5174000000001,320.84341725000013 641.1218975000002,322.21495025000013 631.1843221875,331.2777715000001 623.8191356250002,339.3668699375001 611.2502925000001,352.9826712500001 600.5775615625,364.5427212187501 591.4007875000001,375.9666288125001 587.7408775000001,381.5521413125001 581.6550071875001,394.20576565625015 578.0924675000001,403.68787550000013 573.78817375,417.61958750000014 571.8137284375001,425.44308093750004 569.890246875,436.63883937500015 569.6784475000002,444.4496875000001 570.0090100000001,449.46971000000013 570.5475984375001,452.3881757812502 572.0046899218752,456.98234007812516 575.7797659375002,463.4179309375001 579.7576300000002,468.0312700000001 583.6988706250002,471.5938093750001 590.8477018750002,476.4532993750002 595.9155000000001,478.8754350000002 602.5757650000002,481.3592100000002 610.5512556250002,483.48276750000014 617.91776,484.40030000000013 622.0939975000001,484.66612000000015 623.8694250000001,484.86011500000023 624.2134550000002,484.9154350000002 626.8131600000002,483.7395200000002" opacity="0.8" /><polyline fill="none" stroke="#66cc99" stroke-width="2.0" points="389.00586400000003,493.84620000000007 393.39037999999994,498.8348000000002 398.0133863124999,508.4380150000003 399.24458699999997,515.5260800000002 398.34684018749994,519.7022815625003 395.33863999999994,524.4327800000003 392.99162262499993,526.3535215625003 386.55336774999995,528.8249900000003 377.79057693749996,530.3909737500002 359.30090649999994,530.9492200000002 335.31146796875,529.8855750000002 315.55976849999996,527.7694400000003 302.81178074999997,525.2234637500003 285.80091,520.4701000000002 270.6187699999999,514.3201200000002 250.14488599999996,505.43242000000026 225.74638524999992,496.5441481250003 206.71603649999997,491.10782500000033 187.45372828124997,486.90714843750027 176.76036884374994,485.9231965625002 163.94752899999995,486.51023781250024 153.05870803124998,488.29114750000036 139.05467590624997,492.4654946875004 129.84850191015622,496.4790048437502 117.63422399999995,503.36608000000035 107.78361521874994,511.2692146875003 98.41778690624997,521.9909053125003 90.53006499999995,534.9892300000004 83.11286424999996,550.7276600000002 75.29574843749997,572.2454606250003 71.55375349999997,589.2575800000002 68.80406271874998,610.8233640625002 69.05947199999996,623.9588800000004 71.49474199999997,645.3896200000003 75.78505974999996,663.7191600000002 84.17131624999998,691.1271100000001 91.03970849999996,710.7871918750002 99.39158524999996,728.1291987500002 107.46843574999995,740.1536400000002 116.39779093749999,750.3580471875002 121.92684099999997,754.7525356250002 130.95483999999996,759.1175068750002 139.52476506249997,761.1317528125003 148.06460024999998,761.2944550000002 159.96369449999997,757.8808000000001 169.83048906249996,754.3778331250002 180.22562399999998,748.9190000000001 181.90762490624996,746.3125737500002 188.15665609374997,736.9177509375002 193.11822649999993,723.2367059375001 203.05945524999996,691.8157150000001 208.98338174999995,669.9581375000001 213.87522874999996,643.3346468750002 214.23415768749993,630.4175440625002 213.20325649999995,619.6966050000001 211.03593699999993,612.7782900000002 207.1471412187499,608.8195325 202.17111999999992,607.0830500000001 198.9974788749999,607.84348875 197.8653072499999,608.73985875 197.48644792578116,610.25791796875 193.3571480624999,623.53903375 190.3865099999999,632.44046 185.00897962499988,651.3353543750001 180.18547056249992,662.143324375 174.70920274999992,671.171324375 171.3918487499999,674.918835 170.72263012499988,675.826140625 162.79168553124993,679.0291425 153.80950612499993,679.85046875 146.8678947499999,678.0282390625 144.1025382499999,675.3324749999999 139.6950269062499,664.5676965625 138.41937799999988,656.65416 138.9186721249999,641.7336618749999 140.6703786249999,631.77123625 145.8007121249999,612.3290590624999 151.0013975624999,597.7901856249999 158.0799157499999,584.0927750000001 167.13536918749986,571.2644406249999 174.2440384687499,563.899333125 181.35349956249988,557.6516084374999 187.8529090312499,554.307235 195.7419574999999,551.472975 201.61026905078114,549.7971672656251 217.78866799999986,548.10022 227.38431457812493,548.3943276171875 242.96316399999986,550.0335600000001 251.24049362499986,552.7137714843751 260.2189479999999,559.43942 264.61832518749986,564.2204993750001 272.0452743124999,577.3997712500001 274.4295949999999,589.6603000000001 275.85189984374995,603.6646621875001 277.1265179999999,622.180196875 277.5362100624999,639.6419428125 276.6482690937499,669.0369021875001 276.65565081249986,678.4732375 278.37995906249984,698.4705068750001 281.1645859999999,723.27012 284.1861759999999,744.6304075 286.6692374999999,752.4572528125001 292.9693742499999,768.8308875 299.44032749999985,782.06483 307.65530618749983,795.1568100000001 316.3978641249998,803.8383412500001 330.15832931249986,813.309100625 339.33742878124986,818.9745112500001 347.19470974999984,821.488435 364.70123887499983,825.8465468750001 378.4663739062499,826.8590309375 390.25473206249984,827.667923125 403.2918569999998,825.5161718749999 410.77682443749984,824.4144753125001 421.9270449999998,823.1889725000001 428.05872999999985,821.450965 434.42141249999986,818.4067700000002 447.3852368749998,809.8115406250001 458.1583193749998,798.4841012500001 464.4925465624998,787.4666228125001 469.5567281249998,776.9224690625001 472.6916699999998,765.60928375 474.91497499999986,746.6578875000001 474.59424437499985,733.9687171875 470.8048156249999,712.7947728125002 467.72387624999993,699.9479537500001 464.02284999999995,687.0273800000001 460.8671199999999,680.94928 455.4090968749999,672.2590615625002 450.9675374999999,667.7283300000001 444.7828809374999,663.5256475000002 439.92576999999994,661.9258000000002 434.3107699999999,660.8586600000001 430.6558181249999,660.3062903125001 425.9705399999999,660.1907675000002 420.56667,660.3204675000002 421.0527599999999,659.0565200000002 417.81198624999996,659.9578000000001 413.4497718749999,663.8459018750002 412.70520890624994,668.3741485937502 414.0438512499999,675.0179818750001 417.6518403124999,682.7306125000002 420.18888749999985,687.8863725000002 422.8900099999999,696.7593700000003 423.453140625,704.2439934375003 422.6534668749999,715.7347915625003 421.1087181249999,722.3271962500003 417.3355256249999,729.2735368750002 408.00981199999995,737.4144675000003 400.57892259374995,742.2301943750003 395.08606087499993,744.5691325000004 388.35623362499996,746.0487337500002 376.7197275,744.7066100000004 371.09733943749995,743.1021593750004 359.8670434999999,736.6943081250004 356.41089249999993,732.4606550000002 349.51941074999996,717.9265275000004 346.3034484374999,706.8412078125003 341.62641449999995,684.9582950000004 340.6264999453125,673.8298565625004 341.4725131835937,662.8241541406253 345.4922610703125,648.0998130468754 349.766372375,638.0159856250004 359.7249160625,621.2016793750004 367.89284599999996,612.9219200000003 381.75633756249994,602.6289659375003 391.30736790624997,598.1183084375003 398.6411746874999,596.4094840625003 409.1216637343749,595.0350410937502 422.94274195312494,596.6825019140628 430.7938506249999,598.3965471875003 447.03889499999985,605.5629075000004 456.94762249999997,611.2939925000003 467.5491712499999,617.3037762500003 480.39295999999985,625.5763200000004 489.4603028124999,633.2433762500003 504.6403668749998,650.4637431250003 513.5489368749999,662.7979403125003 526.3209399999998,683.0832800000003 537.4918899999999,701.6029700000003 546.3191412499998,714.4766706250002 553.3515324999998,723.5035650000002 563.2265440624999,733.6538056250004 569.8275306249999,738.5707800000002 580.5014808593747,744.3782983593752 585.7699825390623,745.2711314453127 592.6821762499998,745.4173456250003 597.2552149999998,744.3397700000003 599.5854292187498,743.2241103125002 603.240149375,740.1985500000003 607.6222525,734.6614800000003 613.85711125,721.8961225000003 617.4794499999999,710.0434178125003 622.4091725000001,678.9204050000003 624.8066121874999,651.3642581250003 625.9874965624998,617.5466912500003 625.1467990625,593.4425837500003 623.69841,566.4760400000002 623.46201,561.6656300000003 622.5637199999999,558.6802000000004" opacity="0.8" /><polyline fill="none" stroke="#66cc99" stroke-width="2.0" points="257.94077502,514.6656399999999 257.94077502,514.6656399999999 257.94077502,514.6656399999999 257.94077502,514.6656399999999 257.94077502,514.6656399999999 257.94077502,514.6656399999999 257.94077502,514.6656399999999 257.94077502,514.6656399999999 257.94077502,514.6656399999999 257.94077502,514.6656399999999 257.94077502,514.6656399999999 257.94077502,514.6656399999999 257.94077502,514.6656399999999 257.94077502,514.6656399999999 257.94077502,514.6656399999999 257.94077502,514.6656399999999 257.94077502,514.6656399999999 257.94077502,514.6656399999999 257.94077502,514.6656399999999 257.94077502,514.6656399999999 257.94077502,514.6656399999999 257.94077502,514.6656399999999 257.94077502,514.6656399999999 257.94077502,514.6656399999999 257.94077502,514.6656399999999 257.94077502,514.6656399999999 257.94077502,514.6656399999999 257.94077502,514.6656399999999 257.94077502,514.6656399999999 257.94077502,514.6656399999999 257.94077502,514.6656399999999 257.94077502,514.6656399999999 257.94077502,514.6656399999999 257.94077502,514.6656399999999 257.94077502,514.6656399999999 257.94077502,514.6656399999999 257.94077502,514.6656399999999 257.94077502,514.6656399999999 257.94077502,514.6656399999999 257.94077502,514.6656399999999 257.94077502,514.6656399999999 257.94077502,514.6656399999999 257.94077502,514.6656399999999 257.94077502,514.6656399999999 257.94077502,514.6656399999999 257.9567745192736,514.6656399999999 257.9567745192736,514.6656399999999 257.9567745192736,514.6656399999999 257.9567745192736,514.6656399999999 257.9567745192736,514.6656399999999 257.9567745192736,514.6656399999999 257.9567745192736,514.6656399999999 257.9567745192736,514.6656399999999 257.9567745192736,514.6656399999999 257.9567745192736,514.6656399999999 257.9567745192736,514.6656399999999 257.9567745192736,514.6656399999999 257.9567745192736,514.6656399999999 257.9567745192736,514.6656399999999 257.9567745192736,514.6656399999999 257.9567745192736,514.6656399999999 257.9567745192736,514.6656399999999 257.9567745192736,514.6656399999999 257.9567745192736,514.6656399999999 257.9567745192736,514.6656399999999 257.9567745192736,514.6656399999999 257.9567745192736,514.6656399999999 258.0296719136639,514.6656399999999 258.0296719136639,514.6656399999999 258.0296719136639,514.6656399999999 258.0296719136639,514.6656399999999 258.0296719136639,514.6656399999999 258.0296719136639,514.6656399999999 258.0296719136639,514.6656399999999 258.0296719136639,514.6656399999999 258.0296719136639,514.6656399999999 258.0296719136639,514.6656399999999 258.0296719136639,514.6656399999999 258.0296719136639,514.6656399999999 258.0296719136639,514.6656399999999 258.0296719136639,514.6656399999999 258.0296719136639,514.6656399999999 258.0296719136639,514.6656399999999 258.0296719136639,514.6656399999999 258.0296719136639,514.6656399999999 258.0296719136639,514.6656399999999 258.0296719136639,514.6656399999999 258.0296719136639,514.6656399999999 258.0296719136639,514.6656399999999 258.12519601691804,514.6656399999999 258.12519601691804,514.6656399999999 258.12519601691804,514.6656399999999 258.12519601691804,514.6656399999999 258.12519601691804,514.6656399999999 258.12519601691804,514.6656399999999 258.12519601691804,514.6656399999999 258.12519601691804,514.6656399999999 258.12519601691804,514.6656399999999 258.12519601691804,514.6656399999999 258.12519601691804,514.6656399999999 258.12519601691804,514.6656399999999 258.12519601691804,514.6656399999999 258.12519601691804,514.6656399999999 258.12519601691804,514.6656399999999 258.12519601691804,514.6656399999999 258.12519601691804,514.6656399999999 258.12519601691804,514.6656399999999 258.12519601691804,514.6656399999999 258.12519601691804,514.6656399999999 258.12519601691804,514.6656399999999 258.12519601691804,514.6656399999999 258.244288,514.6656399999999 258.244288,514.6656399999999 258.244288,514.6656399999999 258.244288,514.6656399999999 258.244288,514.6656399999999 258.244288,514.6656399999999 258.244288,514.6656399999999 258.244288,514.6656399999999 258.244288,514.6656399999999 258.244288,514.6656399999999 258.244288,514.6656399999999 258.244288,514.6656399999999 258.244288,514.6656399999999 258.244288,514.6656399999999 258.244288,514.6656399999999 258.244288,514.6656399999999 258.244288,514.6656399999999 258.244288,514.6656399999999 258.244288,514.6656399999999 258.244288,514.6656399999999 258.244288,514.6656399999999 258.244288,514.6656399999999 258.363379983082,514.6656399999999 258.363379983082,514.6656399999999 258.363379983082,514.6656399999999 258.363379983082,514.6656399999999 258.363379983082,514.6656399999999 258.363379983082,514.6656399999999 258.363379983082,514.6656399999999 258.363379983082,514.6656399999999 258.363379983082,514.6656399999999 258.363379983082,514.6656399999999 258.363379983082,514.6656399999999 258.363379983082,514.6656399999999 258.363379983082,514.6656399999999 258.363379983082,514.6656399999999 258.363379983082,514.6656399999999 258.363379983082,514.6656399999999 258.363379983082,514.6656399999999 258.363379983082,514.6656399999999 258.363379983082,514.6656399999999 258.363379983082,514.6656399999999 258.363379983082,514.6656399999999 258.363379983082,514.6656399999999 258.45890408633613,514.6656399999999 258.45890408633613,514.6656399999999 258.45890408633613,514.6656399999999 258.45890408633613,514.6656399999999 258.45890408633613,514.6656399999999 258.45890408633613,514.6656399999999 258.45890408633613,514.6656399999999 258.45890408633613,514.6656399999999 258.45890408633613,514.6656399999999 258.45890408633613,514.6656399999999 258.45890408633613,514.6656399999999 258.45890408633613,514.6656399999999 258.45890408633613,514.6656399999999 258.45890408633613,514.6656399999999 258.45890408633613,514.6656399999999 258.45890408633613,514.6656399999999 258.45890408633613,514.6656399999999 258.45890408633613,514.6656399999999 258.45890408633613,514.6656399999999 258.45890408633613,514.6656399999999 258.45890408633613,514.6656399999999 258.45890408633613,514.6656399999999 258.53180148072636,514.6656399999999 258.53180148072636,514.6656399999999 258.53180148072636,514.6656399999999 258.53180148072636,514.6656399999999 258.53180148072636,514.6656399999999 258.53180148072636,514.6656399999999 258.53180148072636,514.6656399999999 258.53180148072636,514.6656399999999 258.53180148072636,514.6656399999999 258.53180148072636,514.6656399999999 258.53180148072636,514.6656399999999 258.53180148072636,514.6656399999999 258.53180148072636,514.6656399999999 258.53180148072636,514.6656399999999 258.53180148072636,514.6656399999999 258.53180148072636,514.6656399999999 258.53180148072636,514.6656399999999 258.53180148072636,514.6656399999999 258.53180148072636,514.6656399999999 258.53180148072636,514.6656399999999 258.53180148072636,514.6656399999999 258.53180148072636,514.6656399999999 258.54780098000003,514.6656399999999" opacity="0.8" /></svg>