<?xml version="1.0" ?>
<svg xmlns="http://www.w3.org/2000/svg" xmlns:ev="http://www.w3.org/2001/xml-events" xmlns:xlink="http://www.w3.org/1999/xlink" baseProfile="full" height="476px" version="1.1" viewBox="-40.63096974826932 -32.00737115698442 497.50044445444234 394.0172613590235" width="600px">
	<defs/>
	<path d="M 1.0,1.0 C 750.714,267.225 265.166,69.7084 208.0,84.0 C 189.14,88.715 166.683,90.3173 152.0,105.0 C 141.667,115.333 140.442,130.194 136.0,145.0 C 118.66,202.8 117.525,243.525 160.0,286.0 C 166.761,292.761 170.713,301.171 178.0,307.0 C 191.434,317.747 213.566,321.713 230.0,325.0 C 273.83,333.766 311.776,329.965 338.0,295.0 C 347.629,282.162 347.21,261.371 352.0,247.0 C 368.586,197.242 291.975,95.9918 253.0,83.0 C 218.747,71.5824 194.928,168.628 189.0,180.0 C 188.564,180.836 190.333,178.667 191.0,178.0 C 203.131,165.869 263.0,175.0 263.0,175.0 C 263.0,175.0 263.284,181.654 263.0,182.0 C 243.163,206.135 222.638,229.703 203.0,254.0 C 202.002,255.235 211.895,257.895 212.0,258.0 C 222.791,268.791 284.0,265.553 284.0,252.0" fill="none" stroke="#000000" stroke-width="0.41423850495790365"/>
</svg>
