<?xml version="1.0" encoding="UTF-8" standalone="no"?>
<svg
   xmlns:dc="http://purl.org/dc/elements/1.1/"
   xmlns:cc="http://creativecommons.org/ns#"
   xmlns:rdf="http://www.w3.org/1999/02/22-rdf-syntax-ns#"
   xmlns:svg="http://www.w3.org/2000/svg"
   xmlns="http://www.w3.org/2000/svg"
   xmlns:sodipodi="http://sodipodi.sourceforge.net/DTD/sodipodi-0.dtd"
   xmlns:inkscape="http://www.inkscape.org/namespaces/inkscape"
   width="210mm"
   height="297mm"
   viewBox="0 0 210 297"
   version="1.1"
   id="svg31"
   inkscape:version="1.0.2-2 (e86c870879, 2021-01-15)"
   sodipodi:docname="SpiralSVG.svg">
  <defs
     id="defs25" />
  <sodipodi:namedview
     id="base"
     pagecolor="#ffffff"
     bordercolor="#666666"
     borderopacity="1.0"
     inkscape:pageopacity="0.0"
     inkscape:pageshadow="2"
     inkscape:zoom="0.7"
     inkscape:cx="331.74126"
     inkscape:cy="551.84068"
     inkscape:document-units="mm"
     inkscape:current-layer="layer1"
     inkscape:document-rotation="0"
     showgrid="false"
     inkscape:window-width="1620"
     inkscape:window-height="1018"
     inkscape:window-x="-6"
     inkscape:window-y="-6"
     inkscape:window-maximized="1" />
  <metadata
     id="metadata28">
    <rdf:RDF>
      <cc:Work
         rdf:about="">
        <dc:format>image/svg+xml</dc:format>
        <dc:type
           rdf:resource="http://purl.org/dc/dcmitype/StillImage" />
        <dc:title></dc:title>
      </cc:Work>
    </rdf:RDF>
  </metadata>
  <g
     inkscape:label="Layer 1"
     inkscape:groupmode="layer"
     id="layer1">
    <path
       style="fill:none;stroke:#000000;stroke-width:0.264583px;stroke-linecap:butt;stroke-linejoin:miter;stroke-opacity:1"
       d="m 89.580356,89.580356 c -7.099344,-0.162687 -14.742339,1.890673 -20.78869,5.669643 -2.409939,1.506212 0.205531,0.02233 -3.401785,2.645833 -2.048894,1.490104 -4.044662,2.882468 -5.669643,4.913688 -2.394868,2.99359 -3.663359,6.94515 -5.669645,10.20536 -2.744726,4.46018 -5.211685,9.58196 -6.425594,14.74107 -0.842166,3.5792 -1.028057,7.33245 -1.511905,10.96131 -0.567669,4.25752 -1.602688,8.54331 -1.88988,12.85119 -0.155347,2.33022 0,4.8509 0,7.18155 0,2.01587 -0.266424,4.04943 0,6.04762 0.523537,3.92652 2.083991,8.02744 3.401785,11.71726 0.308499,0.8638 0.324313,1.83651 0.755952,2.64583 1.340974,2.51433 5.59336,7.95831 7.559524,10.20536 1.210434,1.38335 2.587329,4.88444 4.157739,5.66964 1.213715,0.60686 2.588477,0.86212 3.779761,1.51191 2.296851,1.25282 4.588171,3.54753 7.181548,4.15773 8.094512,1.90459 16.69243,1.13393 24.946427,1.13393 2.506327,0 3.786442,-0.0877 6.4256,0.37798 3.13101,0.55253 2.07746,1.18451 5.29166,0.75595 4.87144,-0.64952 10.17145,-2.40019 14.74107,-4.15774 4.2594,-1.63823 0.52729,-0.46092 3.77977,-2.26785 7.72029,-4.28906 12.59993,-5.15916 18.52083,-12.47322 4.45675,-5.50539 4.34829,-8.88713 6.42559,-15.11904 0.46635,-1.39903 1.17415,-2.72224 1.51191,-4.15774 0.17314,-0.73586 -0.058,-1.51413 0,-2.26786 0.1271,-1.65228 0.65258,-3.25975 0.75595,-4.91369 0.20511,-3.28183 0.31169,-7.31065 0,-10.58333 -0.16496,-1.73212 -1.22841,-6.14205 -1.5119,-7.9375 -0.35226,-2.23099 -0.1391,-3.06312 -0.75596,-4.91369 -0.22687,-0.68062 -1.92753,-1.4059 -2.64583,-2.26786 -1.51293,-1.81552 -2.88965,-4.07503 -4.15774,-6.04762 -1.18895,-1.84948 -2.07647,-3.90256 -3.40178,-5.66964 -3.26288,-4.35051 -7.53179,-6.97523 -12.09524,-9.82738 -2.6535,-1.65844 -4.88777,-3.24282 -7.9375,-4.15774 -1.23069,-0.36921 -2.56083,-0.34964 -3.77976,-0.75595 -2.31109,-0.77037 -0.66424,-0.69358 -2.64584,-1.13393 -1.43704,-0.31935 -4.46648,-0.4122 -5.66964,-0.75596 -0.43679,-0.12479 -0.70297,-0.61229 -1.13393,-0.75595 -1.051,-0.35033 -9.675819,-0.21425 -10.961305,0 -1.142609,0.19044 -2.313853,1.20107 -3.401788,1.51191 -0.363432,0.10383 -0.755952,0 -1.133927,0 -0.503968,0.12599 -1.014336,0.2287 -1.511906,0.37797 -4.046122,1.21384 -6.030934,2.42753 -9.449403,4.91369 -1.188284,0.86421 -2.619963,1.36579 -3.779764,2.26786 -2.652342,2.06293 -3.921847,4.93783 -5.669642,7.55952 -0.711126,1.0667 -1.975763,1.9517 -2.645833,3.02381 -0.359598,0.57536 -0.431057,1.29424 -0.755952,1.88989 -1.060937,1.94505 -2.292697,3.82116 -3.401785,5.66964 -1.371915,2.28652 -1.813597,5.44078 -2.645833,7.9375 -0.660141,1.98041 -1.627349,3.94735 -1.889882,6.04762 -0.443968,3.55173 -0.104873,7.89599 0.755952,11.33928 0.319032,1.27612 0.862944,2.49258 1.13393,3.77976 0.235037,1.11644 0.142936,2.28536 0.377976,3.40179 0.759102,3.60574 2.825183,11.23033 4.91369,14.3631 0.964687,1.44703 2.724711,2.08297 3.779761,3.40178 1.239274,1.54909 2.386526,3.52045 3.779761,4.91369 2.468396,2.4684 6.515735,3.33821 9.827381,3.77976 1.623529,0.21647 3.280619,-0.12562 4.913691,0 5.334289,0.41033 13.407918,1.17991 18.520838,0 4.47074,-1.03171 8.05341,-3.27075 12.09523,-5.29166 0.60686,-0.30343 1.31747,-0.39169 1.88988,-0.75596 1.36124,-0.86624 2.43727,-2.1288 3.77977,-3.02381 3.35282,-2.23521 6.72875,-5.42025 7.9375,-9.4494 1.34411,-4.48038 1.67775,-10.49656 1.13392,-15.11905 -0.12139,-1.03184 -0.60902,-1.99529 -0.75595,-3.02381 -0.10691,-0.74835 0.10691,-1.5195 0,-2.26785 -0.35534,-2.48743 -1.44785,-4.54855 -2.26786,-6.80358 -0.91071,-2.50447 -0.41709,-2.70451 -1.88988,-4.91369 -1.85993,-2.7899 -4.60768,-5.04993 -6.80357,-7.55952 -0.53124,-0.60713 -0.90894,-1.35391 -1.5119,-1.88988 -0.23891,-0.21236 -3.58427,-2.31814 -4.15774,-2.64583 -2.23575,-1.27758 -1.63369,-0.37672 -4.15774,-1.13393 -0.53969,-0.16191 -0.9683,-0.6077 -1.5119,-0.75595 -2.78071,-0.75838 -6.24598,-0.37798 -9.07143,-0.37798 -2.23144,0 -4.587868,-0.22157 -6.803574,0 -3.027592,0.30276 -9.040201,3.24803 -11.339285,5.29167 -1.266896,1.12613 -2.203204,2.58118 -3.401785,3.77976 -1.597628,1.59762 -4.805656,5.50744 -5.291666,7.9375 -0.148254,0.74127 0.124277,1.52219 0,2.26785 -0.455867,2.7352 -0.691613,5.87072 -0.377976,8.69346 0.253495,2.28144 1.187037,4.5295 1.511903,6.80357 0.31228,2.18595 -0.695311,0.18192 0.377976,3.40178 0.143653,0.43096 0.612302,0.70297 0.755954,1.13393 0.119526,0.35858 -0.07413,0.76329 0,1.13393 0.335489,1.67745 3.39734,5.4147 4.913691,6.4256 1.967013,1.31134 3.856395,1.52467 6.047618,1.88988 0.669256,0.11154 1.220624,0.64441 1.889882,0.75595 0.869945,0.14499 1.769282,-0.0974 2.645833,0 2.41803,0.26867 5.14087,0.60466 7.559519,0 0.54663,-0.13666 0.97222,-0.59404 1.51191,-0.75595 2.24319,-0.67296 4.69595,-1.11825 6.80357,-2.26786 4.00483,-2.18445 8.87423,-7.26923 9.82738,-11.71726 0.67852,-3.16645 -0.24122,-6.8517 -1.13393,-9.82738 -0.37398,-1.2466 -0.40519,-2.23582 -1.13393,-3.40179 -0.56661,-0.90657 -1.57211,-1.45615 -2.26785,-2.26786 -2.35461,-2.74703 -5.38108,-4.50365 -9.07143,-4.91369 -2.46973,-0.27441 -4.79448,0.2255 -7.18155,0.75596 -3.499141,0.77758 -5.684639,1.83228 -7.9375,4.53571 -0.228135,0.27376 -0.623602,0.42508 -0.755952,0.75595 -0.154025,0.38507 0.366059,11.69343 0.377976,11.71726 0.159369,0.31874 0.643263,0.41788 0.755954,0.75596 0.255103,0.76531 0.174302,1.6281 1.133927,2.26785 0.518743,0.34583 1.350593,0.95417 1.889882,1.13393 0.67469,0.2249 5.063625,0.20201 5.669643,0 0.16904,-0.0563 0.25198,-0.25198 0.37798,-0.37797 0.37797,-0.126 0.74092,-0.31248 1.13392,-0.37798 0.62139,-0.10356 1.32643,0.28173 1.88988,0 0.32289,-0.16144 1.97639,-1.22044 2.26786,-1.5119 0.99908,-0.99908 1.56581,-2.86147 1.88988,-4.15774 0.38756,-1.55024 -0.59254,-3.29285 -1.88988,-4.15774 -1.02405,-0.6827 -1.73146,-1.51191 -3.02381,-1.51191 -1.08478,0 -3.019449,-0.94711 -4.157736,-0.37797 -2.416294,1.20814 -1.840119,6.80357 0.755954,6.80357"
       id="path26" />
  </g>
</svg>
