<?xml version="1.0" ?>
<svg xmlns="http://www.w3.org/2000/svg" xmlns:ev="http://www.w3.org/2001/xml-events" xmlns:xlink="http://www.w3.org/1999/xlink" baseProfile="full" height="397px" version="1.1" viewBox="-36.38600000000001 -23.786000000000012 446.77200000000016 295.5720000000001" width="600px">
	<defs/>
	<path d="M 1.0,1.0 C 96.6667,14.6667 192.381,28.0069 288.0,42.0 C 289.776,42.2599 286.803,45.3945 286.0,47.0 C 284.75,49.4999 281.411,53.4737 280.0,57.0 C 274.704,70.2406 267.448,83.2061 264.0,97.0 C 256.563,126.747 221.14,189.86 200.0,211.0 C 193.546,217.454 188.481,224.778 183.0,233.0 C 180.905,236.142 177.647,239.353 176.0,241.0 C 174.3,242.7 169.596,247.0 172.0,247.0 C 182.856,247.0 196.442,232.248 206.0,228.0 C 250.132,208.386 283.866,180.756 324.0,154.0 C 339.688,143.541 353.309,136.346 368.0,129.0 C 368.161,128.92 373.0,125.0 373.0,125.0 C 373.0,125.0 370.351,126.825 370.0,127.0 C 359.545,132.228 347.649,135.0 336.0,135.0 C 290.335,135.0 246.213,133.478 201.0,130.0 C 185.073,128.775 171.095,127.226 156.0,131.0 C 152.107,131.973 147.285,133.0 144.0,133.0 C 141.643,133.0 135.333,132.333 137.0,134.0 C 150.431,147.431 184.336,145.793 201.0,151.0 C 209.128,153.54 216.495,158.498 224.0,161.0 C 257.568,172.189 281.133,195.566 312.0,211.0 C 317.243,213.621 328.0,224.317 328.0,229.0 C 328.0,229.405 328.0,234.0 328.0,234.0 C 328.0,234.0 328.236,230.65 328.0,229.0 C 325.873,214.11 320.664,201.329 314.0,188.0 C 295.673,151.345 280.0,100.579 280.0,60.0" fill="none" stroke="#000000" stroke-width="0.3720000000000001"/>
</svg>
